<svg width="154" height="35" viewBox="0 0 154 35" xmlns="http://www.w3.org/2000/svg"><title>medlease_logo</title><g fill="none" fill-rule="evenodd"><path d="M55.489 7.263a.985.985 0 0 0-.004-.053l-.01-.064-.011-.061-.014-.051c-.006-.023-.012-.046-.02-.07l-.015-.043c-.01-.024-.018-.049-.028-.07-.006-.016-.014-.03-.021-.045l-.032-.064a1.46 1.46 0 0 0-.032-.053l-.031-.048c-.014-.021-.03-.04-.045-.06-.01-.012-.018-.025-.028-.036a1.485 1.485 0 0 0-.053-.058l-.03-.032-.055-.05-.038-.034a1.173 1.173 0 0 0-.052-.039c-.017-.01-.034-.023-.051-.035-.015-.01-.031-.018-.046-.027a.629.629 0 0 0-.067-.037l-.015-.01c-.01-.005-.02-.008-.028-.013l-.072-.03c-.016-.007-.033-.012-.05-.018a.462.462 0 0 0-.066-.021l-.06-.016-.058-.013c-.024-.003-.048-.008-.072-.01a.402.402 0 0 0-.05-.006c-.026-.003-.054-.003-.08-.005h-.046a.993.993 0 0 0-.078.005l-.051.003a1.502 1.502 0 0 0-.066.01c-.02.005-.041.008-.061.011-.017.005-.034.01-.051.013-.023.008-.047.013-.07.02a.778.778 0 0 0-.043.017.61.61 0 0 0-.071.027 3.722 3.722 0 0 0-.107.052l-.053.034-.05.03a.891.891 0 0 0-.058.045l-.037.028a.976.976 0 0 0-.058.053c-.011.01-.021.018-.032.03a1.41 1.41 0 0 0-.083.093c-.013.016-.025.034-.038.052-.013.016-.025.035-.037.051-.01.016-.018.032-.028.046l-.037.066-.008.016-6.747 13.56-6.746-13.56-.01-.016a1.402 1.402 0 0 0-.036-.066.352.352 0 0 1-.028-.046l-.036-.05a.755.755 0 0 0-.04-.054c-.01-.013-.021-.024-.031-.035a1.433 1.433 0 0 0-.052-.058l-.03-.027a1.064 1.064 0 0 0-.093-.082c-.021-.016-.041-.032-.063-.046l-.045-.03-.057-.034c-.018-.01-.038-.018-.058-.028-.016-.008-.032-.018-.05-.024a.65.65 0 0 0-.066-.027l-.047-.016c-.022-.008-.044-.013-.066-.02l-.055-.014-.06-.01a.88.88 0 0 0-.116-.015 1.03 1.03 0 0 0-.08-.003l-.016-.002-.028.002c-.027 0-.054.002-.082.004l-.05.005-.071.011-.058.013-.06.016c-.022.005-.045.013-.067.02l-.05.019-.071.03c-.01.005-.02.008-.028.013l-.015.01a.532.532 0 0 0-.066.037c-.016.009-.032.017-.047.027-.017.012-.034.025-.051.035a2.347 2.347 0 0 0-.052.04l-.037.032-.057.051-.03.032a2.787 2.787 0 0 0-.052.058l-.028.035-.045.06-.031.05-.032.051-.032.065-.021.045a.638.638 0 0 0-.028.07l-.015.042c-.008.024-.014.048-.02.07-.005.018-.01.035-.013.051a.672.672 0 0 0-.011.063.708.708 0 0 0-.01.063l-.005.053c-.002.026-.004.051-.004.077V23.2a1.267 1.267 0 1 0 2.534 0V12.75l5.479 11.015a1.255 1.255 0 0 0 .195.283l.029.03c.029.03.059.06.09.087l.028.024c.04.03.082.06.126.087.012.008.024.014.036.02a.638.638 0 0 0 .067.038c.01.006.022.01.033.015l.06.024a.943.943 0 0 0 .097.035l.055.016c.038.01.076.018.114.026.015 0 .029.003.044.006.053.006.107.012.16.012h.002c.054 0 .107-.006.16-.012a1.575 1.575 0 0 0 .158-.031l.054-.017a.896.896 0 0 0 .099-.035.73.73 0 0 0 .059-.024c.01-.006.023-.01.034-.015.023-.01.045-.024.067-.037l.035-.02c.044-.027.086-.058.126-.088l.026-.024a.957.957 0 0 0 .12-.117c.037-.04.07-.08.1-.124l.007-.01c.029-.043.055-.087.078-.132l.01-.017 5.48-11.014V23.2a1.267 1.267 0 1 0 2.535 0V7.359l-.001-.019-.004-.077m22.408 14.513c-2.42 0-4.39-1.97-4.39-4.39a4.394 4.394 0 0 1 4.39-4.389c2.42 0 4.39 1.968 4.39 4.39 0 2.42-1.97 4.39-4.39 4.39M83.554 6.09c-.7 0-1.267.568-1.267 1.268v4.677a6.89 6.89 0 0 0-4.39-1.573c-3.818 0-6.925 3.106-6.925 6.924a6.931 6.931 0 0 0 6.925 6.924 6.896 6.896 0 0 0 4.39-1.573v.462a1.267 1.267 0 1 0 2.535 0V7.36c0-.7-.568-1.269-1.268-1.269m14.084 15.841h-8.082V7.358a1.268 1.268 0 1 0-2.534 0V23.2c0 .122.017.238.05.35l.006.027c.023.074.054.144.089.211l.008.016c.013.025.029.05.045.074.006.01.01.021.018.031.039.058.084.112.132.163l.023.024.024.023a1.402 1.402 0 0 0 .193.152c.025.014.049.03.075.044l.015.007c.068.036.138.065.212.09l.028.005c.11.033.228.05.349.05h9.349a1.268 1.268 0 1 0 0-2.534m22.665-.157c-2.42 0-4.39-1.97-4.39-4.39a4.394 4.394 0 0 1 4.39-4.389 4.394 4.394 0 0 1 4.39 4.39c0 2.42-1.969 4.39-4.39 4.39m0-11.315a6.932 6.932 0 0 0-6.924 6.924 6.931 6.931 0 0 0 6.924 6.924 6.896 6.896 0 0 0 4.39-1.573v.462a1.267 1.267 0 1 0 2.535 0v-5.813c0-3.818-3.107-6.924-6.925-6.924m19.003 8.142c-.663-1.467-2.385-2.399-5.118-2.77-1.997-.272-2.908-.816-3.094-1.235-.112-.25.015-.57.1-.74a4.388 4.388 0 0 1 2.73-.959c1.048 0 2.062.375 2.855 1.055a1.267 1.267 0 0 0 1.65-1.925 6.928 6.928 0 0 0-9.035.023 1.306 1.306 0 0 0-.195.214h-.001c-.12.165-1.15 1.66-.44 3.321.632 1.476 2.296 2.378 5.089 2.757 2.514.342 3.042 1.076 3.144 1.293.147.312.003.694-.081.87a4.356 4.356 0 0 1-2.985 1.172 4.37 4.37 0 0 1-3.026-1.21 1.268 1.268 0 0 0-1.748 1.836 6.893 6.893 0 0 0 4.774 1.908c1.85 0 3.589-.719 4.897-2.027.06-.06.113-.126.158-.194l.008-.013c.138-.21 1.064-1.725.318-3.376m-33.904-5.607a4.395 4.395 0 0 1 4.202 3.122H101.2a4.397 4.397 0 0 1 4.203-3.122m0-2.535a6.933 6.933 0 0 0-6.925 6.925c0 3.818 3.107 6.923 6.925 6.923a6.88 6.88 0 0 0 5.504-2.721 1.27 1.27 0 0 0-.237-1.778 1.269 1.269 0 0 0-1.777.238 4.363 4.363 0 0 1-3.49 1.727 4.399 4.399 0 0 1-4.203-3.122h9.86c.7 0 1.268-.568 1.268-1.267a6.933 6.933 0 0 0-6.925-6.925m-42.17 2.535a4.395 4.395 0 0 1 4.202 3.122h-8.404a4.395 4.395 0 0 1 4.202-3.122m0-2.535a6.933 6.933 0 0 0-6.925 6.925c0 3.818 3.107 6.923 6.925 6.923a6.88 6.88 0 0 0 5.504-2.721 1.27 1.27 0 0 0-.237-1.778 1.27 1.27 0 0 0-1.777.238 4.363 4.363 0 0 1-3.49 1.727 4.396 4.396 0 0 1-4.202-3.122h9.859c.7 0 1.268-.568 1.268-1.267a6.933 6.933 0 0 0-6.925-6.925m83.707 2.535a4.396 4.396 0 0 1 4.201 3.122h-8.405a4.397 4.397 0 0 1 4.203-3.122m6.924 4.39a6.932 6.932 0 0 0-6.924-6.925 6.933 6.933 0 0 0-6.925 6.925c0 3.818 3.107 6.923 6.925 6.923a6.88 6.88 0 0 0 5.504-2.721 1.27 1.27 0 0 0-.237-1.778 1.269 1.269 0 0 0-1.777.238 4.363 4.363 0 0 1-3.49 1.727 4.399 4.399 0 0 1-4.203-3.122h9.86c.7 0 1.267-.568 1.267-1.267" fill="#1187C2"/><path d="M21.76 24.959c-.326.345-.672.677-1.03.987l-5.914 5.122c-.345.3-.865.3-1.21 0l-5.913-5.122a14.029 14.029 0 0 1-2.727-3.19 13.98 13.98 0 0 1-2.123-7.407V3.055c0-.117.1-.211.22-.211H25.36c.121 0 .218.094.218.21V15.35a14.009 14.009 0 0 1-3.819 9.61M25.36-.001H3.062A3.061 3.061 0 0 0 0 3.056V15.35c0 3.152.883 6.234 2.552 8.912a16.95 16.95 0 0 0 3.278 3.835l5.914 5.123a3.767 3.767 0 0 0 2.467.914c.882 0 1.764-.306 2.467-.914l5.914-5.123a16.979 16.979 0 0 0 3.511-4.22 16.861 16.861 0 0 0 2.32-8.527V3.055A3.061 3.061 0 0 0 25.36 0" fill="#E6635E"/><path d="M20.742 7.948a1.424 1.424 0 0 0-1.31-.878h-.002a1.42 1.42 0 0 0-1.006.416l-4.227 4.228L9.91 7.425c-.004-.003-.009-.004-.012-.008a1.41 1.41 0 0 0-.984-.406l-.01-.002-.01.002a1.4 1.4 0 0 0-.984.406c-.003.004-.008.005-.01.008-.005.003-.006.008-.01.011a1.436 1.436 0 0 0-.408.994v11.666a1.422 1.422 0 1 0 2.844 0v-8.233l2.867 2.867a1.415 1.415 0 0 0 1.005.416 1.431 1.431 0 0 0 1.006-.416v-.001l2.805-2.804v8.171a1.421 1.421 0 1 0 2.844 0V8.492c0-.186-.038-.37-.11-.544" fill="#1187C2"/></g></svg>