<svg width="41" height="43" viewBox="0 0 41 43" fill="none" xmlns="http://www.w3.org/2000/svg">
<g clip-path="url(#clip0)">
<path d="M27.2917 8.1872C27.3622 5.41168 25.2667 3.34727 22.5267 3.34727C19.2607 3.40753 17.0999 6.90964 18.4493 9.89005C18.8877 10.8543 19.7592 11.5499 20.7287 12.1628C24.2354 14.3856 28.495 15.1363 30.7966 19.1378C31.6136 20.5836 32.0556 22.2115 32.0824 23.8727C32.0824 29.2636 27.883 33.5508 22.5525 33.5508C18.5164 33.5508 14.6642 30.9509 13.5537 27.008L17.0226 23.5335C15.6182 26.9099 19.0853 30.0763 22.4012 30.1589C25.7755 30.2209 28.6239 27.4505 28.6875 24.2911C28.73 23.169 28.4818 22.0551 27.9672 21.0576C25.8924 17.1594 19.5237 16.6257 16.5842 13.1614C15.9038 12.365 15.3884 11.4408 15.0681 10.4427C14.6141 8.99289 14.5767 7.44428 14.9604 5.97416C15.344 4.50404 16.1332 3.17181 17.2375 2.12996C18.5078 0.943651 20.2869 0.0724278 22.6195 0.000112829C25.7566 -0.017105 29.0536 1.93712 30.1709 5.28944L27.2917 8.18032" fill="#3B3A39"/>
<path d="M25.8175 30.2468C24.6174 31.4477 23.0387 32.1946 21.3504 32.3604C19.6621 32.5262 17.9686 32.1006 16.5585 31.1561C15.1484 30.2115 14.1088 28.8065 13.6168 27.1803C13.1249 25.5541 13.2111 23.8074 13.8607 22.2378C14.5103 20.6681 15.6831 19.3725 17.1793 18.5718C18.6756 17.7711 20.4027 17.5148 22.0664 17.8465C23.7302 18.1782 25.2277 19.0775 26.3038 20.391C27.3798 21.7046 27.968 23.3512 27.968 25.0504C27.969 26.0158 27.7795 26.9718 27.4105 27.8635C27.0415 28.7553 26.5001 29.5652 25.8175 30.2468ZM20.6297 28.9589C21.5328 28.961 22.4087 28.6492 23.108 28.0768C23.8073 27.5043 24.2867 26.7066 24.4645 25.8197C24.6422 24.9328 24.5073 24.0115 24.0828 23.2131C23.6582 22.4147 22.9703 21.7885 22.1364 21.4413C21.3024 21.0941 20.374 21.0474 19.5095 21.3092C18.645 21.571 17.898 22.1251 17.3957 22.8769C16.8935 23.6287 16.6672 24.5318 16.7554 25.4321C16.8436 26.3324 17.2408 27.1742 17.8794 27.8139C18.6083 28.5457 19.5976 28.9576 20.6297 28.9589Z" fill="#3B3A39"/>
<path d="M13.5527 27.0012L17.0457 23.5008C16.8703 23.9199 16.7641 24.3647 16.7311 24.818C16.5403 27.7123 19.6035 30.1779 22.5257 30.1779C23.4741 30.1863 24.4114 29.9747 25.2644 29.5594C26.1174 29.1442 26.8627 28.5367 27.442 27.7846C26.8702 29.213 25.8654 30.4257 24.5691 31.2517C23.2728 32.0778 21.7504 32.4756 20.2165 32.3891C18.6825 32.3026 17.2143 31.7361 16.0188 30.7695C14.8233 29.8028 13.9608 28.4848 13.5527 27.0012Z" fill="#009DE2"/>
<path d="M11.0186 28.3958L10.503 28.7281C10.4032 28.5389 10.2607 28.3756 10.087 28.2511C9.92647 28.156 9.74482 28.1024 9.55844 28.0951C9.37207 28.0879 9.18684 28.1273 9.01949 28.2098C8.87404 28.2838 8.75113 28.3956 8.66366 28.5335C8.57568 28.673 8.53027 28.8352 8.53302 29.0001C8.52973 29.1462 8.5778 29.2888 8.66882 29.403C8.75733 29.5161 8.86639 29.6113 8.99027 29.6837C9.1372 29.7683 9.28869 29.8448 9.44406 29.9127L9.83083 30.0849C10.088 30.193 10.3349 30.3244 10.5683 30.4774C10.764 30.6071 10.9285 30.7788 11.0496 30.9802C11.1763 31.2076 11.2387 31.4654 11.2301 31.7257C11.2325 32.0451 11.1488 32.3593 10.9878 32.635C10.8269 32.9108 10.5946 33.138 10.3156 33.2925C10.0355 33.4505 9.71908 33.5324 9.39766 33.5301C9.1067 33.534 8.81886 33.4697 8.55708 33.3425C8.30677 33.2199 8.0902 33.0378 7.92623 32.8122C7.75429 32.577 7.63685 32.3065 7.58243 32.0201L8.21501 31.8394C8.25381 32.1339 8.3914 32.4065 8.60521 32.6124C8.70711 32.7142 8.82841 32.7944 8.9619 32.8482C9.09538 32.9021 9.23831 32.9284 9.38218 32.9258C9.58734 32.9258 9.78931 32.8749 9.97007 32.7777C10.1513 32.682 10.3047 32.5408 10.4153 32.3679C10.5274 32.1953 10.5872 31.9937 10.5872 31.7877C10.5942 31.6011 10.5445 31.4167 10.4445 31.2591C10.3508 31.1198 10.2283 31.0024 10.0852 30.9148C9.90084 30.8051 9.70965 30.7073 9.51283 30.6221L9.157 30.4671C8.92382 30.366 8.70005 30.2445 8.48832 30.1038C8.31312 29.9822 8.16552 29.825 8.05515 29.6424C7.93777 29.4397 7.8783 29.2086 7.88325 28.9743C7.8806 28.7633 7.92525 28.5545 8.0139 28.3631C8.09938 28.1824 8.22177 28.0216 8.37315 27.8913C8.5251 27.76 8.69992 27.6578 8.88884 27.59C9.08826 27.5202 9.29816 27.4853 9.50939 27.4867C9.71698 27.4854 9.92311 27.5215 10.1179 27.5934C10.3078 27.6639 10.4828 27.7697 10.6336 27.9051C10.7914 28.0456 10.9224 28.2136 11.0204 28.4009L11.0186 28.3958ZM3.03577 28.0945C2.6126 28.0914 2.19659 28.2039 1.8325 28.4199C1.47011 28.6347 1.16983 28.9403 0.961241 29.3067C0.752657 29.673 0.642964 30.0875 0.642964 30.5093C0.642964 30.931 0.752657 31.3455 0.961241 31.7119C1.16983 32.0783 1.47011 32.3839 1.8325 32.5987C2.19496 32.8128 2.60809 32.9257 3.0289 32.9257C3.44971 32.9257 3.86283 32.8128 4.22529 32.5987C4.77374 32.2738 5.1728 31.7462 5.33647 31.1294C5.50014 30.5126 5.4153 29.8561 5.10025 29.3014C4.89375 28.9353 4.5935 28.631 4.23045 28.4199C3.86891 28.2073 3.4567 28.0967 3.03749 28.0996L3.03577 28.0945ZM3.03577 27.4901C3.43645 27.4885 3.83336 27.5676 4.20294 27.7226C4.93906 28.0291 5.52634 28.6118 5.8394 29.3462C5.99763 29.7167 6.07781 30.1158 6.0749 30.5187C6.07977 31.052 5.9376 31.5764 5.66406 32.0339C5.39389 32.4907 5.00961 32.8692 4.54907 33.1321C4.08852 33.395 3.56758 33.5332 3.03749 33.5332C2.50741 33.5332 1.98645 33.395 1.52591 33.1321C1.06536 32.8692 0.681086 32.4907 0.410908 32.0339C0.141836 31.5738 0 31.0502 0 30.517C0 29.9838 0.141836 29.4602 0.410908 29.0001C0.679092 28.5417 1.06257 28.1618 1.52308 27.8982C1.98186 27.6283 2.50548 27.489 3.03749 27.4953L3.03577 27.4901Z" fill="#3B3A39"/>
<path d="M40.7877 37.7038L40.272 38.0361C40.1722 37.8469 40.0298 37.6836 39.856 37.5591C39.6955 37.464 39.5139 37.4103 39.3275 37.4031C39.1411 37.3959 38.9559 37.4353 38.7885 37.5178C38.6431 37.5918 38.5202 37.7036 38.4327 37.8415C38.3447 37.981 38.2993 38.1432 38.3021 38.3081C38.2988 38.4542 38.3469 38.5968 38.4379 38.711C38.526 38.8245 38.6351 38.9198 38.7593 38.9917C38.9063 39.0763 39.0578 39.1528 39.2131 39.2207L39.5999 39.3929C39.8569 39.5014 40.1037 39.6328 40.3373 39.7854C40.5332 39.9145 40.6972 40.0864 40.8169 40.2882C40.9451 40.5151 41.0081 40.7731 40.9991 41.0337C41.0015 41.3531 40.9179 41.6673 40.7569 41.943C40.596 42.2188 40.3637 42.446 40.0846 42.6005C39.8163 42.7475 39.5171 42.8287 39.2114 42.8374C38.9057 42.8461 38.6023 42.782 38.3261 42.6505C38.0758 42.5279 37.8593 42.3458 37.6953 42.1202C37.5241 41.8846 37.4067 41.6142 37.3515 41.3281L37.9858 41.1474C38.0238 41.4422 38.1615 41.715 38.376 41.9204C38.4779 42.0222 38.5992 42.1024 38.7327 42.1562C38.8662 42.2101 39.0091 42.2364 39.153 42.2338C39.3581 42.2338 39.5601 42.1829 39.7409 42.0857C39.9221 41.9899 40.0755 41.8488 40.1861 41.6759C40.2982 41.5033 40.3579 41.3017 40.358 41.0957C40.3653 40.9088 40.3148 40.7242 40.2136 40.5671C40.1209 40.4275 39.9989 40.31 39.856 40.2228C39.6716 40.1131 39.4804 40.0153 39.2836 39.93L38.9278 39.7751C38.6946 39.674 38.4708 39.5524 38.2591 39.4118C38.0826 39.291 37.9348 39.1329 37.8259 38.9486C37.7084 38.7467 37.6489 38.516 37.654 38.2823C37.6514 38.0713 37.696 37.8625 37.7847 37.6711C37.8702 37.4904 37.9925 37.3296 38.1439 37.1993C38.296 37.0682 38.4708 36.966 38.6596 36.898C38.8597 36.8283 39.0701 36.7934 39.2819 36.7947C39.4895 36.7934 39.6956 36.8295 39.8904 36.9014C40.0803 36.9719 40.2553 37.0777 40.4061 37.2131C40.5622 37.3505 40.6916 37.5157 40.7877 37.7003V37.7038ZM34.6407 37.5092V42.7435H33.9909V37.5092H32.5848V36.9049H36.0709V37.5092H34.6407ZM25.788 42.7435V36.6483L30.333 41.4177V36.898H30.9827V43L26.4447 38.2375V42.7366L25.788 42.7435ZM22.5546 40.4827L21.5817 38.1446L20.583 40.4827H22.5546ZM22.8091 41.0871H20.32L19.6169 42.7435H18.907L21.5955 36.6259L24.21 42.7366H23.4915L22.8091 41.0871ZM16.3028 36.898V42.1322H17.91V42.7366H15.6513V36.898H16.3028ZM11.5137 37.5092V39.5754H11.9486C12.8345 39.5754 13.2774 39.2247 13.2774 38.5234C13.2952 38.2817 13.2195 38.0425 13.066 37.8553C12.9262 37.7036 12.741 37.6014 12.5382 37.5643C12.2795 37.5185 12.0171 37.4972 11.7544 37.5006L11.5137 37.5092ZM11.5137 40.1883V42.7435H10.864V36.898H11.8232C12.0993 36.8946 12.3752 36.9136 12.6483 36.9548C12.8713 36.9911 13.0833 37.077 13.2688 37.2062C13.4788 37.3523 13.6465 37.5512 13.7553 37.783C13.8631 38.0102 13.9211 38.258 13.9253 38.5095C13.9294 38.7611 13.8797 39.0107 13.7793 39.2413C13.6899 39.4566 13.5495 39.6469 13.3702 39.7957C13.0585 40.0529 12.5973 40.1814 11.9865 40.1814L11.5137 40.1883ZM2.61466 42.7435L3.79731 36.5708L5.9168 41.4693L8.04143 36.5657L9.22408 42.7383H8.56744L7.81797 38.7902H7.80077L5.92367 42.9793L4.05171 38.7902H4.03797L3.28678 42.7383L2.61466 42.7435ZM0.959297 36.9049V42.7435H0.316406V36.898L0.959297 36.9049Z" fill="#009DE2"/>
</g>
<defs>
<clipPath id="clip0">
<rect width="41" height="43" fill="white"/>
</clipPath>
</defs>
</svg>
